HIERARCHY
ROOT Hips
{
	OFFSET	0.00	0.00	0.00
	CHANNELS 6 Xposition Yposition Zposition Zrotation Xrotation Yrotation
	JOINT LeftUpLeg
	{
		OFFSET	 0.126116	-0.065224	 0.014019
		CHANNELS 3 Zrotation Xrotation Yrotation
		JOINT LeftLeg
		{
			OFFSET	 0.000000	 0.569914	 0.000000
			CHANNELS 3 Zrotation Xrotation Yrotation
			JOINT LeftFoot
			{
				OFFSET	 0.000000	 0.544423	 0.000000
				CHANNELS 3 Zrotation Xrotation Yrotation
				JOINT LeftToeBase
				{
					OFFSET	 0.000000	 0.207117	 0.000000
					CHANNELS 3 Zrotation Xrotation Yrotation
					End Site
					{
						OFFSET	 0.000000	 0.207117	 0.000000
					}
				}
			}
		}
	}
	JOINT RightUpLeg
	{
		OFFSET	-0.124023	-0.065224	 0.008373
		CHANNELS 3 Zrotation Xrotation Yrotation
		JOINT RightLeg
		{
			OFFSET	 0.000000	 0.570047	 0.000000
			CHANNELS 3 Zrotation Xrotation Yrotation
			JOINT RightFoot
			{
				OFFSET	 0.000000	 0.544354	 0.000000
				CHANNELS 3 Zrotation Xrotation Yrotation
				JOINT RightToeBase
				{
					OFFSET	 0.000000	 0.207540	 0.000000
					CHANNELS 3 Zrotation Xrotation Yrotation
					End Site
					{
						OFFSET	 0.000000	 0.207540	 0.000000
					}
				}
			}
		}
	}
	JOINT Spine
	{
		OFFSET	 0.000184	 0.117403	 0.007763
		CHANNELS 3 Zrotation Xrotation Yrotation
		JOINT Spine1
		{
			OFFSET	 0.000000	 0.137269	 0.000000
			CHANNELS 3 Zrotation Xrotation Yrotation
			JOINT Spine2
			{
				OFFSET	 0.000000	 0.156879	 0.000000
				CHANNELS 3 Zrotation Xrotation Yrotation
				JOINT LeftShoulder
				{
					OFFSET	 0.080501	 0.160143	 0.002496
					CHANNELS 3 Zrotation Xrotation Yrotation
					JOINT LeftArm
					{
						OFFSET	 0.000000	 0.164363	 0.000000
						CHANNELS 3 Zrotation Xrotation Yrotation
						JOINT LeftForeArm
						{
							OFFSET	 0.000000	 0.364576	 0.000000
							CHANNELS 3 Zrotation Xrotation Yrotation
							JOINT LeftHand
							{
								OFFSET	 0.000000	 0.360812	 0.000000
								CHANNELS 3 Zrotation Xrotation Yrotation
								JOINT LeftHandIndex1
								{
									OFFSET	 0.000000	 0.086006	 0.000000
									CHANNELS 3 Zrotation Xrotation Yrotation
									JOINT LeftHandIndex2
									{
										OFFSET	 0.000000	 0.047237	 0.000000
										CHANNELS 3 Zrotation Xrotation Yrotation
										JOINT LeftHandIndex3
										{
											OFFSET	-0.004284	 0.038165	 0.000551
											CHANNELS 3 Zrotation Xrotation Yrotation
											End Site
											{
												OFFSET	-0.004284	 0.038165	 0.000551
											}
										}
									}
								}
							}
						}
					}
				}
				JOINT Neck
				{
					OFFSET	 0.000000	 0.176489	 0.000000
					CHANNELS 3 Zrotation Xrotation Yrotation
					JOINT Head
					{
						OFFSET	 0.000000	 0.077941	 0.001747
						CHANNELS 3 Zrotation Xrotation Yrotation
						End Site
						{
							OFFSET	 0.000000	 0.077941	 0.001747
						}
					}
				}
				JOINT RightShoulder
				{
					OFFSET	-0.080363	 0.159706	-0.000306
					CHANNELS 3 Zrotation Xrotation Yrotation
					JOINT RightArm
					{
						OFFSET	 0.000000	 0.164196	 0.000000
						CHANNELS 3 Zrotation Xrotation Yrotation
						JOINT RightForeArm
						{
							OFFSET	 0.000000	 0.365611	 0.000000
							CHANNELS 3 Zrotation Xrotation Yrotation
							JOINT RightHand
							{
								OFFSET	 0.000000	 0.360648	 0.000000
								CHANNELS 3 Zrotation Xrotation Yrotation
								JOINT RightHandIndex1
								{
									OFFSET	 0.000000	 0.069977	 0.000000
									CHANNELS 3 Zrotation Xrotation Yrotation
									JOINT RightHandIndex2
									{
										OFFSET	 0.000000	 0.052305	 0.000000
										CHANNELS 3 Zrotation Xrotation Yrotation
										JOINT RightHandIndex3
										{
											OFFSET	 0.009002	 0.042196	 0.000782
											CHANNELS 3 Zrotation Xrotation Yrotation
											End Site
											{
												OFFSET	 0.009002	 0.042196	 0.000782
											}
										}
									}
								}
							}
						}
					}
				}
			}
		}
	}
}
MOTION
Frames:    9
Frame Time: 0.03333334
-0.045517	 1.202708	-3.334864	-3.298500	 0.720487	-178.543900	 175.759700	 25.850400	-20.516330	 5.458364	-35.665230	 0.528822	-9.295849	 71.732710	 21.138110	 1.352861	 29.216050	-2.739277	 170.792500	 8.230057	 12.021930	-10.438920	-67.461340	-1.711885	 7.947049	 60.695910	-2.758186	-1.644991	 33.122310	 3.101484	-3.347220	 7.233531	 0.732679	 0.750242	 2.002016	-0.293778	-1.584015	-2.564631	 3.960619	-122.001700	 5.561230	 93.151790	-9.704473	 53.281830	 13.265840	 4.876099	-0.252019	-0.073120	 5.116213	-0.253695	 14.716110	 4.473410	 20.653130	-1.708348	-5.861629	 22.899300	 2.532066	 5.396363	 5.864909	-0.142198	-0.164689	-5.061232	-0.441016	-2.696390	-1.490505	-2.829628	 119.073900	 0.617247	-91.145030	-14.427360	 48.781800	 2.334860	-4.687285	-0.184199	 0.050999	-14.839830	 2.595142	-15.698210	-2.742535	 27.165390	 1.487740	 16.310490	 46.640100	-12.530000	-8.525105	 24.846980	-1.285062
-0.047176	 1.222722	-3.408556	-2.842235	 0.654119	-176.706400	 175.161300	 20.534550	-18.707720	 4.854568	-32.557010	 1.851279	-6.520824	 73.413930	 17.300110	 1.409477	 29.944030	-2.764389	 170.883000	 13.884870	 13.521990	-9.690969	-65.930070	-0.523322	 5.979371	 68.093960	-1.134164	-1.691048	 33.203040	 3.792858	-2.345654	 7.272087	-1.614061	 0.871752	 1.652772	-0.791266	-1.438940	-2.297926	 3.687057	-121.860700	 6.036807	 93.379960	 3.680012	 52.039130	 4.205331	 4.806152	-0.248390	-0.073473	 7.804067	-5.317204	 7.993552	 4.612786	 19.800150	-1.708691	-5.862169	 22.241140	 2.458886	 5.358320	 4.968441	-0.157776	-0.172717	-4.912411	-0.278471	-2.600403	-1.551120	-2.480069	 118.873100	 0.359202	-91.016170	-12.141090	 49.767100	 1.851191	-4.686817	-0.184209	 0.051080	-8.713305	 4.283156	-18.236970	-2.663506	 27.207660	 1.448496	 16.300380	 46.604920	-12.515020	-8.524591	 24.945370	-1.291686
-0.046442	 1.228712	-3.506157	-2.660165	 0.008086	-175.219800	 175.203500	 16.241690	-17.252360	 4.932519	-32.971340	 3.666218	-4.161919	 78.079170	 13.338660	 1.464081	 30.636660	-2.789232	 168.646200	 24.854350	 17.519210	-9.160707	-64.718240	 0.969242	 3.788862	 72.335110	-0.174950	-1.733863	 33.621970	 3.965349	-1.734294	 6.925495	-3.530752	 0.968860	 2.035158	-1.365520	-1.381230	-2.621038	 3.387613	-121.697000	 6.776400	 93.738870	 15.010330	 47.121100	-2.628397	 4.811379	-0.248667	-0.073362	 10.720820	-8.469534	 3.058008	 4.674662	 19.473020	-1.709453	-5.862566	 22.012840	 2.433579	 5.346101	 4.681540	-0.162880	-0.175657	-4.853113	-0.137455	-2.385353	-1.810372	-2.355397	 118.654100	 0.015940	-90.848220	-6.692638	 50.150550	-1.054158	-4.742872	-0.186390	 0.050886	-6.189558	 5.882680	-20.469580	-2.459949	 26.082330	 1.341634	 15.967550	 45.405820	-12.015640	-8.529406	 23.890720	-1.221012
-0.045339	 1.227823	-3.613402	-2.660120	-1.067093	-173.837800	 175.204800	 11.140770	-15.708850	 4.743455	-31.959620	 5.510242	 3.769065	 82.409300	 3.836333	 1.516966	 31.298550	-2.813866	 165.178900	 34.753960	 23.267310	-6.655214	-57.024030	 4.800982	 3.596137	 73.466140	-1.720755	-1.700475	 33.365960	 3.518222	-1.387737	 6.330851	-5.145891	 1.021378	 2.673607	-1.886521	-1.371914	-3.252969	 3.042344	-121.544600	 7.781903	 94.230350	 22.768430	 40.372100	-5.834177	 4.834476	-0.249842	-0.073279	 15.400880	-11.103320	-0.427167	 4.681092	 19.564860	-1.716967	-5.862534	 22.028780	 2.435344	 5.347506	 4.714586	-0.162284	-0.175904	-4.857298	-0.003193	-2.089925	-2.224756	-2.383245	 118.409600	-0.415890	-90.640190	 1.385989	 50.214230	-5.958982	-4.759536	-0.187026	 0.050757	-5.860676	 7.203529	-22.346050	-2.160234	 24.047090	 1.189413	 15.430020	 43.278720	-11.179750	-8.534514	 21.939660	-1.091952
-0.043684	 1.224724	-3.713291	-2.630910	-1.968548	-172.690100	 175.411900	 5.384965	-14.308460	 4.206050	-28.957480	 6.926546	 20.655970	 85.008020	-14.632130	 1.561527	 31.849450	-2.835051	 164.614300	 37.507110	 26.431420	-3.639071	-40.167820	 8.812494	 4.634705	 69.939890	-4.968993	-1.674581	 33.152700	 3.147202	-1.101871	 5.838584	-6.538662	 1.130561	 3.159158	-2.374262	-1.387810	-3.715466	 2.738487	-121.424000	 8.619768	 94.638310	 27.651390	 33.937910	-7.202127	 4.793367	-0.247761	-0.073443	 19.653460	-12.635040	-3.438091	 4.686457	 19.641290	-1.723233	-5.862508	 22.042050	 2.436813	 5.348674	 4.742091	-0.161788	-0.176101	-4.860782	 0.108558	-1.843294	-2.561430	-2.407784	 118.207200	-0.775991	-90.468440	 8.274068	 49.559530	-10.245460	-4.739578	-0.186237	 0.050866	-5.758647	 8.607843	-23.926580	-1.918699	 22.352600	 1.073255	 15.027980	 41.504270	-10.525710	-8.535144	 20.315740	-0.985964
-0.040560	 1.217160	-3.805743	-2.545542	-2.602528	-171.763400	 176.043600	 0.313521	-13.073830	 3.838595	-26.797290	 7.666543	 37.366960	 86.106760	-32.884950	 1.746387	 34.068520	-2.926990	 167.663800	 33.959060	 25.992150	-1.378546	-17.741840	 11.480400	 5.617966	 64.279300	-8.064758	-1.677786	 33.247870	 2.890818	-0.790400	 5.455636	-7.844669	 1.237543	 3.333563	-2.754870	-1.391625	-3.965083	 2.498506	-121.311900	 9.263129	 94.948410	 30.280900	 29.418180	-7.819888	 4.743602	-0.245177	-0.073748	 23.852510	-14.531010	-5.497291	 4.731663	 19.780060	-1.747229	-5.862236	 22.195950	 2.453868	 5.357862	 4.957963	-0.157945	-0.172326	-4.888335	 0.201364	-1.628268	-2.809456	-2.315037	 118.094700	-1.108573	-90.313060	 12.847220	 48.619100	-12.580470	-4.712528	-0.185224	 0.050908	-4.381047	 9.430291	-25.998980	-1.708294	 20.142700	 0.976395	 14.577480	 39.284740	-9.755630	-8.531216	 18.201370	-0.849550
-0.033943	 1.198506	-3.915111	-2.362180	-2.631498	-171.434200	 177.494800	-4.791027	-12.130890	 3.964580	-27.547740	 6.542929	 18.692010	 87.645240	-16.030720	 2.325948	 40.345740	-3.253477	 170.482300	 32.580890	 23.104230	-0.475891	-6.303205	 11.027330	 1.679552	 58.841660	-5.958910	-1.750137	 34.102920	 2.927605	-0.420342	 5.250743	-9.180737	 1.467804	 3.612325	-3.183569	-1.411448	-4.201536	 2.453794	-121.213000	 9.397188	 95.005360	 31.877800	 26.912220	-9.909419	 4.749642	-0.245529	-0.073718	 24.153630	-15.513310	-6.450546	 4.874014	 20.067330	-1.814679	-5.861695	 22.691700	 2.508934	 5.386456	 5.631334	-0.146181	-0.158842	-4.974338	 0.243488	-1.502034	-2.847666	-1.935444	 118.207100	-1.357989	-90.201540	 15.315920	 47.392410	-12.893210	-4.709309	-0.185063	 0.050940	-2.796591	 8.444876	-29.599870	-1.573610	 16.743390	 0.918238	 14.011890	 36.050630	-8.714773	-8.515134	 14.955240	-0.642680
-0.028778	 1.184062	-3.984501	-2.230156	-2.619385	-171.179100	 178.562800	-7.842423	-11.364990	 4.106502	-28.381020	 5.743479	-12.658490	 87.820580	 14.037940	 2.839541	 45.102830	-3.583669	 169.076900	 39.261760	 22.981810	-1.387942	-17.855070	 10.315010	 3.246078	 66.185650	-5.765975	-1.805882	 34.750590	 2.956597	-0.144676	 5.122865	-10.084950	 1.568792	 3.526081	-3.390595	-1.401131	-4.241001	 2.407186	-121.138100	 9.498782	 95.048340	 32.303380	 26.295330	-10.873440	 4.780030	-0.247075	-0.073536	 25.327490	-17.168360	-6.607215	 4.982258	 20.284830	-1.866361	-5.861630	 23.067220	 2.550776	 5.408046	 6.141407	-0.137485	-0.148585	-5.039476	 0.275413	-1.406446	-2.875871	-1.650626	 118.292600	-1.546762	-90.116720	 16.089210	 46.713830	-12.259980	-4.717047	-0.185381	 0.050932	-0.691004	 7.592539	-32.178950	-1.475407	 14.167720	 0.880297	 13.644990	 33.595280	-7.978613	-8.495105	 12.495820	-0.487236
-0.022815	 1.172151	-4.060680	-1.877392	-2.390802	-170.567900	-179.940100	-12.229780	-10.337680	 3.958580	-27.512220	 4.511913	-22.577300	 83.214790	 22.505380	 3.839990	 52.566370	-4.123188	 169.532800	 41.559080	 21.961080	-1.777936	-22.072070	 9.834104	 1.884465	 67.917840	-4.879759	-1.851842	 35.277330	 2.980916	 0.341163	 5.009300	-11.250760	 1.667747	 3.324684	-3.614298	-1.342707	-4.147336	 2.305307	-121.060500	 9.514415	 95.047940	 32.416680	 25.812380	-11.479390	 4.815666	-0.248874	-0.073357	 26.000270	-17.921550	-6.961734	 5.079662	 20.526500	-1.916168	-5.861981	 23.548670	 2.604594	 5.434778	 6.774796	-0.126945	-0.133963	-5.113657	 0.301951	-1.367607	-2.685031	-1.334791	 118.460100	-1.829813	-89.989700	 16.950720	 45.918260	-11.622640	-4.708958	-0.185066	 0.050952	 1.073544	 6.768591	-34.443530	-1.415630	 11.344150	 0.860690	 13.299360	 30.925290	-7.222293	-8.466182	 9.849513	-0.320465
